<svg xmlns="http://www.w3.org/2000/svg" viewBox="0 0 64 64">
  <rect width="64" height="64" rx="14" fill="#1a1714"/>
  <g transform="translate(32 32) scale(0.06452 -0.06452) translate(-315 -363)">
    <path fill="#f6f3ee" d="M65 0Q51 0 51 10Q51 20 67 23L109 30Q129 33 139.0 40.5Q149 48 153 69L292 669Q295 683 289.5 689.0Q284 695 265 695Q231 695 190.5 667.5Q150 640 118 565L102 527Q97 514 85 514Q71 514 76 531L126 712Q132 735 148 735Q157 735 162.5 731.5Q168 728 181.0 724.0Q194 720 226 720H449Q481 720 496.5 724.0Q512 728 519.5 731.5Q527 735 533 735Q550 735 545 712L513 531Q510 514 496 514Q483 514 485 527L487 552Q493 626 468.0 660.5Q443 695 398 695Q379 695 371.5 689.0Q364 683 361 669L222 69Q217 48 223.5 40.5Q230 33 249 30L296 23Q307 22 307 12Q307 0 291 0Z"/>
    <path fill="#f0783c" transform="translate(461 0)" d="M62 -9Q41 -9 28.0 4.5Q15 18 15 38Q15 64 33.0 80.0Q51 96 71 96Q91 96 104.5 82.5Q118 69 118 49Q118 23 100.0 7.0Q82 -9 62 -9Z"/>
  </g>
</svg>
